<svg xmlns="http://www.w3.org/2000/svg" xmlns:xlink="http://www.w3.org/1999/xlink" width="400" zoomAndPan="magnify" viewBox="0 0 300 149.999998" height="200" preserveAspectRatio="xMidYMid meet" version="1.0"><defs><g/></defs><g fill="#ffbd59" fill-opacity="1"><g transform="translate(39.801547, 104.680583)"><g><path d="M 0.40625 -21.65625 L -0.140625 -23.53125 C -0.140625 -23.894531 0.0351562 -24.195312 0.390625 -24.4375 C 0.753906 -24.6875 1.21875 -25.191406 1.78125 -25.953125 C 2.34375 -26.710938 2.742188 -27.203125 2.984375 -27.421875 C 3.234375 -27.648438 3.59375 -27.976562 4.0625 -28.40625 C 4.539062 -28.832031 4.9375 -29.179688 5.25 -29.453125 C 6.144531 -30.210938 6.769531 -30.648438 7.125 -30.765625 C 7.488281 -30.878906 8.117188 -31.070312 9.015625 -31.34375 C 11.796875 -32.238281 14.148438 -32.863281 16.078125 -33.21875 C 27.503906 -52.3125 36.679688 -67.25 43.609375 -78.03125 C 50.535156 -88.8125 54.476562 -94.773438 55.4375 -95.921875 C 56.40625 -97.066406 58.117188 -98.085938 60.578125 -98.984375 C 63.046875 -99.878906 64.851562 -100.316406 66 -100.296875 C 67.144531 -100.273438 67.71875 -99.769531 67.71875 -98.78125 C 67.71875 -98.375 67.570312 -97.832031 67.28125 -97.15625 C 66.988281 -96.488281 64.535156 -92.523438 59.921875 -85.265625 C 42.835938 -58.503906 31.894531 -41.15625 27.09375 -33.21875 L 28.78125 -32.609375 C 39.175781 -34.535156 44.585938 -35.5 45.015625 -35.5 C 45.441406 -35.5 46.519531 -35.195312 48.25 -34.59375 C 49.976562 -33.988281 51.109375 -33.644531 51.640625 -33.5625 C 52.671875 -33.375 53.1875 -32.53125 53.1875 -31.03125 C 53.1875 -29.53125 52.71875 -28.691406 51.78125 -28.515625 C 51.019531 -28.378906 49.191406 -27.941406 46.296875 -27.203125 C 43.410156 -26.460938 41.09375 -25.890625 39.34375 -25.484375 C 41.71875 -22.660156 42.90625 -19.65625 42.90625 -16.46875 C 42.90625 -13.289062 41.492188 -9.085938 38.671875 -3.859375 C 35.847656 1.359375 32.238281 6.519531 27.84375 11.625 C 23.445312 16.738281 18.835938 21.5625 14.015625 26.09375 C 9.203125 30.625 4.578125 34.285156 0.140625 37.078125 C -4.296875 39.878906 -7.578125 41.28125 -9.703125 41.28125 C -11.835938 41.28125 -13.742188 40.707031 -15.421875 39.5625 C -17.109375 38.425781 -17.953125 36.738281 -17.953125 34.5 C -17.953125 32.257812 -17.492188 29.644531 -16.578125 26.65625 C -15.660156 23.675781 -14.660156 20.941406 -13.578125 18.453125 C -12.503906 15.972656 -10.664062 12.398438 -8.0625 7.734375 C -5.289062 2.710938 -0.269531 -5.867188 7 -18.015625 C 5.738281 -17.796875 4.769531 -17.6875 4.09375 -17.6875 C 3.425781 -17.6875 2.800781 -17.84375 2.21875 -18.15625 C 1.632812 -18.46875 1.234375 -18.867188 1.015625 -19.359375 C 0.609375 -20.265625 0.40625 -21.03125 0.40625 -21.65625 Z M 19.328125 7.328125 C 22.671875 3.429688 25.484375 -0.65625 27.765625 -4.9375 C 30.054688 -9.21875 31.203125 -12.710938 31.203125 -15.421875 C 31.203125 -18.140625 29.878906 -20.53125 27.234375 -22.59375 L 19.765625 -20.90625 C 19.003906 -19.65625 17.828125 -17.671875 16.234375 -14.953125 C 14.648438 -12.242188 13.351562 -10.035156 12.34375 -8.328125 C 11.332031 -6.628906 10.039062 -4.4375 8.46875 -1.75 C 6.90625 0.9375 5.59375 3.195312 4.53125 5.03125 C 3.476562 6.875 2.3125 8.953125 1.03125 11.265625 C -0.238281 13.578125 -1.285156 15.550781 -2.109375 17.1875 C -2.941406 18.820312 -3.738281 20.445312 -4.5 22.0625 C -5.976562 25.195312 -6.71875 27.234375 -6.71875 28.171875 C -6.71875 29.117188 -6.472656 29.59375 -5.984375 29.59375 C -5.085938 29.59375 -3.238281 28.570312 -0.4375 26.53125 C 2.363281 24.488281 5.523438 21.753906 9.046875 18.328125 C 12.566406 14.898438 15.992188 11.234375 19.328125 7.328125 Z M 19.328125 7.328125 "/></g></g></g><g fill="#ffffff" fill-opacity="1"><g transform="translate(89.360138, 104.680583)"><g><path d="M 59.921875 -100.9375 C 62.066406 -100.9375 63.957031 -100.296875 65.59375 -99.015625 C 67.226562 -97.742188 68.046875 -95.851562 68.046875 -93.34375 C 68.046875 -90.832031 66.65625 -86.894531 63.875 -81.53125 C 61.101562 -76.175781 57.765625 -70.707031 53.859375 -65.125 C 49.960938 -59.539062 45.546875 -53.613281 40.609375 -47.34375 C 32.816406 -37.382812 25.332031 -28.441406 18.15625 -20.515625 C 18.113281 -19.972656 17.921875 -18.972656 17.578125 -17.515625 C 17.242188 -16.054688 17.078125 -14.585938 17.078125 -13.109375 C 17.078125 -11.628906 17.757812 -10.296875 19.125 -9.109375 C 20.5 -7.921875 22.191406 -7.328125 24.203125 -7.328125 C 26.222656 -7.328125 28.382812 -8.046875 30.6875 -9.484375 C 33 -10.921875 35.007812 -12.507812 36.71875 -14.25 C 41.195312 -18.875 43.972656 -21.1875 45.046875 -21.1875 C 46.128906 -21.1875 46.671875 -19.546875 46.671875 -16.265625 L 46.671875 -14.921875 C 46.671875 -13.179688 46.359375 -11.90625 45.734375 -11.09375 C 41.960938 -6.476562 37.722656 -3.035156 33.015625 -0.765625 C 28.304688 1.492188 23.84375 2.625 19.625 2.625 C 15.414062 2.625 12.210938 1.335938 10.015625 -1.234375 C 7.816406 -3.816406 6.71875 -7.347656 6.71875 -11.828125 C 6.71875 -20.578125 9.0625 -30.859375 13.75 -42.671875 C 18.4375 -54.484375 23.71875 -64.535156 29.59375 -72.828125 C 42.8125 -91.566406 52.921875 -100.9375 59.921875 -100.9375 Z M 56.890625 -89.765625 C 56.890625 -90.441406 56.664062 -90.78125 56.21875 -90.78125 C 54.644531 -90.78125 50.519531 -86.296875 43.84375 -77.328125 C 37.164062 -68.367188 32.332031 -61.21875 29.34375 -55.875 C 26.363281 -50.539062 23.550781 -43.84375 20.90625 -35.78125 C 26.195312 -42.050781 33.515625 -51.832031 42.859375 -65.125 C 52.210938 -78.414062 56.890625 -86.628906 56.890625 -89.765625 Z M 56.890625 -89.765625 "/></g></g></g><g fill="#ffffff" fill-opacity="1"><g transform="translate(124.865751, 104.680583)"><g><path d="M 49.828125 -51.234375 C 51.171875 -51.234375 52.546875 -50.628906 53.953125 -49.421875 C 55.367188 -48.210938 56.078125 -46.363281 56.078125 -43.875 C 56.078125 -41.382812 55.203125 -38.15625 53.453125 -34.1875 C 51.710938 -30.226562 49.316406 -26.195312 46.265625 -22.09375 C 43.210938 -17.988281 39.859375 -14.128906 36.203125 -10.515625 C 32.554688 -6.910156 28.613281 -3.953125 24.375 -1.640625 C 20.132812 0.660156 16.289062 1.8125 12.84375 1.8125 C 9.394531 1.8125 6.625 0.726562 4.53125 -1.4375 C 2.445312 -3.613281 1.40625 -6.640625 1.40625 -10.515625 C 1.40625 -14.398438 2.359375 -18.695312 4.265625 -23.40625 C 6.171875 -28.113281 8.625 -32.269531 11.625 -35.875 C 14.632812 -39.476562 17.890625 -42.71875 21.390625 -45.59375 C 28.691406 -51.46875 35.097656 -54.40625 40.609375 -54.40625 C 43.078125 -54.40625 44.941406 -53.800781 46.203125 -52.59375 C 46.648438 -52.1875 46.875 -51.828125 46.875 -51.515625 L 46.875 -51.109375 C 47.5 -51.191406 48.484375 -51.234375 49.828125 -51.234375 Z M 43.03125 -42.296875 L 42.5625 -42.296875 C 41 -42.296875 40.21875 -43.441406 40.21875 -45.734375 C 36.9375 -44.648438 33.503906 -42.765625 29.921875 -40.078125 C 26.335938 -37.390625 23.132812 -34.207031 20.3125 -30.53125 C 14.570312 -23.175781 11.65625 -16.96875 11.5625 -11.90625 C 11.5625 -9.394531 12.476562 -8.140625 14.3125 -8.140625 C 16.15625 -8.140625 18.890625 -9.347656 22.515625 -11.765625 C 26.148438 -14.191406 29.75 -17.644531 33.3125 -22.125 C 36.882812 -26.601562 39.554688 -30.488281 41.328125 -33.78125 C 43.097656 -37.082031 43.984375 -39.328125 43.984375 -40.515625 C 43.984375 -41.703125 43.664062 -42.296875 43.03125 -42.296875 Z M 43.03125 -42.296875 "/></g></g></g><g fill="#ffffff" fill-opacity="1"><g transform="translate(175.29986, 104.680583)"><g><path d="M 60.25 -51.78125 C 60.25 -48.6875 58.519531 -44.164062 55.0625 -38.21875 C 51.613281 -32.28125 47.1875 -26.265625 41.78125 -20.171875 C 36.382812 -14.078125 30.660156 -8.796875 24.609375 -4.328125 C 18.554688 0.128906 13.828125 2.359375 10.421875 2.359375 C 8.585938 2.359375 6.90625 1.679688 5.375 0.328125 C 3.851562 -1.015625 3.09375 -3.148438 3.09375 -6.078125 C 3.09375 -9.015625 4.484375 -13.644531 7.265625 -19.96875 C 10.046875 -26.289062 12.78125 -31.625 15.46875 -35.96875 C 13.09375 -34.226562 11.644531 -33.359375 11.125 -33.359375 C 10.613281 -33.359375 9.960938 -33.9375 9.171875 -35.09375 C 8.390625 -36.257812 8 -37.164062 8 -37.8125 C 8 -38.46875 8.113281 -38.953125 8.34375 -39.265625 C 17.164062 -49.085938 23.394531 -54 27.03125 -54 C 28.550781 -54 29.828125 -53.550781 30.859375 -52.65625 C 31.890625 -51.757812 32.40625 -50.679688 32.40625 -49.421875 C 32.40625 -48.171875 30.878906 -44.5625 27.828125 -38.59375 C 24.785156 -32.632812 21.738281 -26.617188 18.6875 -20.546875 C 15.644531 -14.472656 14.125 -10.648438 14.125 -9.078125 C 14.125 -8.804688 14.257812 -8.671875 14.53125 -8.671875 C 15.6875 -8.671875 18.832031 -10.988281 23.96875 -15.625 C 29.101562 -20.269531 33.257812 -24.585938 36.4375 -28.578125 C 39.625 -32.566406 42.414062 -36.578125 44.8125 -40.609375 C 47.21875 -44.648438 48.421875 -47.296875 48.421875 -48.546875 C 48.421875 -49.804688 48.160156 -50.847656 47.640625 -51.671875 C 47.128906 -52.503906 46.875 -53.398438 46.875 -54.359375 C 46.875 -55.328125 47.535156 -56.40625 48.859375 -57.59375 C 50.179688 -58.78125 51.875 -59.375 53.9375 -59.375 C 58.144531 -59.375 60.25 -56.84375 60.25 -51.78125 Z M 60.25 -51.78125 "/></g></g></g><g fill="#ffffff" fill-opacity="1"><g transform="translate(225.397742, 104.680583)"><g><path d="M 50.4375 -50.296875 C 50.4375 -47.335938 49.234375 -44.738281 46.828125 -42.5 C 44.429688 -40.257812 41.710938 -39.140625 38.671875 -39.140625 C 37.679688 -39.140625 37.03125 -39.375 36.71875 -39.84375 C 36.40625 -40.3125 36.25 -40.925781 36.25 -41.6875 C 36.25 -42.445312 36.335938 -43.1875 36.515625 -43.90625 C 34.898438 -43.375 33.101562 -42.546875 31.125 -41.421875 C 29.15625 -40.296875 26.734375 -38.632812 23.859375 -36.4375 C 20.992188 -34.25 19.5625 -32.613281 19.5625 -31.53125 C 19.5625 -31.175781 20.085938 -31 21.140625 -31 C 22.203125 -31 23.828125 -31.367188 26.015625 -32.109375 C 28.210938 -32.847656 29.75 -33.21875 30.625 -33.21875 C 31.5 -33.21875 32.070312 -33.171875 32.34375 -33.078125 C 32.925781 -32.765625 33.550781 -32.082031 34.21875 -31.03125 C 34.894531 -29.976562 35.234375 -29.148438 35.234375 -28.546875 C 35.234375 -27.941406 34.648438 -27.144531 33.484375 -26.15625 C 32.316406 -25.164062 30.992188 -24.410156 29.515625 -23.890625 C 28.035156 -23.378906 27.050781 -22.992188 26.5625 -22.734375 C 17.101562 -17.441406 12.375 -13.804688 12.375 -11.828125 C 12.375 -8.335938 15.351562 -6.59375 21.3125 -6.59375 C 25.125 -6.59375 28.957031 -7.800781 32.8125 -10.21875 C 36.082031 -12.28125 39.03125 -14.375 41.65625 -16.5 C 44.28125 -18.632812 45.9375 -19.945312 46.625 -20.4375 C 47.320312 -20.9375 47.851562 -21.1875 48.21875 -21.1875 C 49.382812 -21.1875 49.96875 -19.882812 49.96875 -17.28125 C 49.96875 -14.675781 49.804688 -12.957031 49.484375 -12.125 C 49.171875 -11.300781 48.273438 -10.285156 46.796875 -9.078125 C 37.203125 -1.273438 28.125 2.625 19.5625 2.625 C 14.988281 2.625 11.335938 1.992188 8.609375 0.734375 C 3.585938 -1.546875 1.078125 -5.039062 1.078125 -9.75 C 1.078125 -15.9375 5.359375 -20.625 13.921875 -23.8125 C 12.210938 -24.570312 11.113281 -25.546875 10.625 -26.734375 C 10.132812 -27.921875 9.890625 -29.820312 9.890625 -32.4375 C 9.890625 -35.0625 11.109375 -37.84375 13.546875 -40.78125 C 15.992188 -43.71875 18.988281 -46.128906 22.53125 -48.015625 C 30.414062 -52.273438 37.453125 -54.40625 43.640625 -54.40625 C 45.117188 -54.40625 46.617188 -54.046875 48.140625 -53.328125 C 49.671875 -52.609375 50.4375 -51.597656 50.4375 -50.296875 Z M 50.4375 -50.296875 "/></g></g></g><g fill="#381b75" fill-opacity="1"><g transform="translate(150.848268, 90.129825)"><g/></g></g></svg>